<?xml version="1.0" encoding="utf-8"?>
<!-- Generator: Adobe Illustrator 25.0.0, SVG Export Plug-In . SVG Version: 6.00 Build 0)  -->
<svg version="1.1" id="Layer_2" xmlns="http://www.w3.org/2000/svg" xmlns:xlink="http://www.w3.org/1999/xlink" x="0px" y="0px"
	 viewBox="0 0 1434 493" style="enable-background:new 0 0 1434 493;" xml:space="preserve">
<style type="text/css">
	.st0{fill:#F2F2F2;}
	.st1{fill:none;stroke:#999999;stroke-width:2;stroke-miterlimit:10;}
</style>
<polyline class="st0" points="444.5,12.3 412,70.3 444.5,128.24 511,128.24 545,71.3 511,12.3 "/>
<polygon class="st0" points="288.89,121.58 212.39,121.58 175,188.3 212.39,254.96 288.89,254.96 328,189.45 "/>
<polygon class="st0" points="151.89,336.58 75.39,336.58 38,403.3 75.39,469.96 151.89,469.96 191,404.45 "/>
<polygon class="st0" points="751.89,179.58 675.39,179.58 638,246.3 675.39,312.96 751.89,312.96 791,247.45 "/>
<polyline class="st0" points="84.39,37.58 47,104.3 84.39,170.96 160.89,170.96 200,105.45 160.89,37.58 "/>
<polygon class="st0" points="151.89,188.58 75.39,188.58 38,255.3 75.39,321.96 151.89,321.96 191,256.45 "/>
<polygon class="st0" points="1078.57,185.76 974.07,185.76 923,276.91 974.07,367.96 1078.57,367.96 1132,278.48 "/>
<polygon class="st0" points="504.54,256.3 374.54,256.3 311,369.69 374.54,482.96 504.54,482.96 571.01,371.64 "/>
<polygon class="st1" points="956,191.3 889.5,191.3 857,249.3 889.5,307.24 956,307.24 990,250.3 "/>
<polygon class="st1" points="1064,112.3 997.5,112.3 965,170.3 997.5,228.24 1064,228.24 1098,171.3 "/>
<polygon class="st1" points="1389.82,191.8 1354.26,191.8 1336.88,222.81 1354.26,253.8 1389.82,253.8 1408,223.35 "/>
<polygon class="st1" points="1238.86,152.8 1195.56,152.8 1174.39,190.57 1195.56,228.3 1238.86,228.3 1261,191.22 "/>
<polygon class="st1" points="823,130.3 756.5,130.3 724,188.3 756.5,246.24 823,246.24 857,189.3 "/>
<polygon class="st1" points="823,246.3 756.5,246.3 724,304.3 756.5,362.24 823,362.24 857,305.3 "/>
<polygon class="st1" points="688,188.3 621.5,188.3 589,246.3 621.5,304.24 688,304.24 722,247.3 "/>
<polygon class="st1" points="688,72.3 621.5,72.3 589,130.3 621.5,188.24 688,188.24 722,131.3 "/>
<polygon class="st1" points="577,130.3 510.5,130.3 478,188.3 510.5,246.24 577,246.24 611,189.3 "/>
<polygon class="st1" points="510.5,14.3 478,72.3 510.5,130.24 577,130.24 611,73.3 577,14.3 "/>
<polygon class="st1" points="577,246.3 510.5,246.3 478,304.3 510.5,362.24 577,362.24 611,305.3 "/>
<polygon class="st1" points="467,188.3 400.5,188.3 368,246.3 400.5,304.24 467,304.24 501,247.3 "/>
<polygon class="st1" points="467,304.3 400.5,304.3 368,362.3 400.5,420.24 467,420.24 501,363.3 "/>
<polygon class="st1" points="467,72.3 400.5,72.3 368,130.3 400.5,188.24 467,188.24 501,131.3 "/>
<polygon class="st1" points="287.5,14.3 255,72.3 287.5,130.24 354,130.24 388,73.3 354,14.3 "/>
<polygon class="st1" points="354,130.3 287.5,130.3 255,188.3 287.5,246.24 354,246.24 388,189.3 "/>
<polygon class="st1" points="240,188.3 173.5,188.3 141,246.3 173.5,304.24 240,304.24 274,247.3 "/>
<polygon class="st1" points="240,304.3 173.5,304.3 141,362.3 173.5,420.24 240,420.24 274,363.3 "/>
<polygon class="st1" points="128,369.3 61.5,369.3 29,427.3 61.5,485.24 128,485.24 162,428.3 "/>
</svg>
